PathFileType	4	(X/Y/Z)	C:/Users/opensim2020/Desktop/walking_exp_matlab/subject01_walking10_straight_03.trc	
DataRate	CameraRate	NumFrames	NumMarkers	Units	OrigDataRate	OrigDataStartFrame	OrigNumFrames	
100.00	100.00	7	43	mm	100.00	3127	317	
Frame#	Time	LFHD			RFHD			LBHD			RBHD			C7			T10			CLAV			STRN			RBAK			LSHO			LUPA			LELB			LFRM			LWRA			LWRB			LFIN			RSHO			RUPA			RELB			RFRM			RWRA			RWRB			RFIN			LASI			RASI			LPSI			RPSI			LTHI			LKNE			LTIB			LANK			LHEE			LTOE			RTHI			RKNE			RTIB			RANK			RHEE			RTOE			*39			*40			*41			*42			
		X1	Y1	Z1	X2	Y2	Z2	X3	Y3	Z3	X4	Y4	Z4	X5	Y5	Z5	X6	Y6	Z6	X7	Y7	Z7	X8	Y8	Z8	X9	Y9	Z9	X10	Y10	Z10	X11	Y11	Z11	X12	Y12	Z12	X13	Y13	Z13	X14	Y14	Z14	X15	Y15	Z15	X16	Y16	Z16	X17	Y17	Z17	X18	Y18	Z18	X19	Y19	Z19	X20	Y20	Z20	X21	Y21	Z21	X22	Y22	Z22	X23	Y23	Z23	X24	Y24	Z24	X25	Y25	Z25	X26	Y26	Z26	X27	Y27	Z27	X28	Y28	Z28	X29	Y29	Z29	X30	Y30	Z30	X31	Y31	Z31	X32	Y32	Z32	X33	Y33	Z33	X34	Y34	Z34	X35	Y35	Z35	X36	Y36	Z36	X37	Y37	Z37	X38	Y38	Z38	X39	Y39	Z39	X40	Y40	Z40	X41	Y41	Z41	X42	Y42	Z42	X43	Y43	Z43	

278	2.770	1343.69727	1002.91962	1671.86389	1449.42517	1044.64539	1677.38147	1382.30957	888.06879	1639.41895	1494.70984	929.52368	1644.37073	1414.24109	847.81061	1436.60596	1423.97766	821.24323	1141.90295	1413.29993	991.14185	1370.16956	1410.07495	1039.05713	1217.34534	1490.71777	796.52875	1239.78833	1252.32764	932.30023	1398.55078	1171.32129	916.74902	1210.04529	1177.47131	915.62445	1057.43774	1153.11987	970.14819	957.17505	1167.10754	1070.62292	859.53864	1148.60693	1015.41669	843.59247	1137.02209	1074.97083	782.94965	1565.75098	927.42969	1398.61597	1663.04968	860.53577	1200.18799	1667.19824	858.20605	1075.40076	1700.50134	886.47821	958.22778	1688.14709	971.98602	844.57306	1724.30127	926.17535	844.14069	1725.92468	966.53400	768.23425	1317.05969	992.91833	937.32385	1533.65552	993.67828	938.73138	1372.48743	805.86133	950.79181	1518.55920	810.43591	951.72089	1276.74182	980.57782	603.92737	1301.17200	981.47144	470.38391	1302.09558	929.35614	287.00726	1366.67395	902.36395	74.69103	1420.62366	858.78088	46.07521	1352.02942	1048.68982	39.35773	1602.83862	1007.67560	610.72723	1584.88037	1038.50977	455.63882	1584.91663	907.46747	336.74734	1536.58154	778.26422	176.59404	1480.78931	721.06836	164.34659	1543.78918	871.99518	70.53039	1428.35803	1030.37183	1711.44019	-3101.76270	1973.03491	1023.40399	-3140.54053	2012.61255	1022.05023			 
279	2.780	1343.12573	1009.99396	1671.94995	1448.76147	1051.90173	1677.35876	1381.80566	895.21497	1639.72705	1494.20752	936.78296	1644.52783	1413.47461	854.63361	1436.94189	1423.02991	827.61279	1142.31018	1412.45667	997.84564	1370.29565	1409.08704	1045.58240	1217.43909	1489.90613	803.00476	1240.17993	1251.59973	939.08270	1399.05798	1170.30298	924.56635	1210.69519	1176.16553	924.37164	1058.08289	1151.91724	980.32275	958.29663	1165.74219	1082.33044	862.29199	1147.45117	1027.30200	845.45618	1135.90674	1087.74011	785.77423	1564.90002	934.22717	1398.69958	1662.06946	866.76947	1200.45508	1666.05444	863.98602	1075.75598	1699.36938	891.40332	958.40839	1687.17480	976.10596	844.07196	1723.27222	930.23859	844.08130	1724.67188	969.85498	767.57892	1315.97986	999.02441	937.34656	1532.41907	1000.17975	939.34235	1372.06299	811.99359	950.82666	1517.98401	816.85229	951.75177	1276.25696	983.77588	603.58435	1300.62256	983.70941	469.97894	1301.83228	930.60767	286.86975	1366.68933	902.41742	74.75621	1420.75671	858.98621	46.20267	1352.08606	1048.72083	39.33580	1601.68799	1018.03558	612.20844	1583.04614	1050.97400	457.12787	1584.07739	923.84344	334.70172	1535.74170	799.05591	170.32101	1480.06555	742.51343	155.99257	1545.20044	896.86774	68.61108	1427.75720	1037.67834	1711.48352	-3101.91626	1973.09973	1023.41949	-3140.72705	2012.56250	1022.12097			 
280	2.790	1342.54065	1017.11273	1672.06445	1448.14063	1059.14929	1677.29150	1381.44800	902.16980	1640.06860	1493.76721	944.02954	1644.61487	1412.84973	861.36969	1437.30164	1422.10510	833.86530	1142.63770	1411.70508	1004.55231	1370.41736	1408.34351	1052.20483	1217.66504	1489.06628	809.54431	1240.50732	1250.93530	945.65607	1399.46997	1169.30823	932.16516	1211.20349	1174.90332	933.06940	1058.35901	1150.75403	990.45654	959.49945	1164.59729	1093.85120	865.00708	1146.29712	1039.04773	847.32184	1134.46997	1100.44690	788.41443	1564.19336	941.10297	1398.77795	1661.18311	873.19568	1200.64001	1665.02795	869.90582	1076.00891	1698.33362	896.39685	958.48071	1686.26099	980.31274	843.52063	1722.59119	934.60278	844.16187	1723.59497	973.37927	767.02692	1314.85364	1004.76825	937.13477	1531.37305	1006.62372	939.84686	1371.59692	818.11469	950.84314	1517.73596	823.30103	951.99231	1275.79614	986.90594	603.23981	1300.18787	985.77887	469.60733	1301.61108	931.91333	286.68408	1366.71606	902.50250	74.78682	1421.23987	859.68158	46.16853	1351.97742	1048.78247	39.26653	1601.06030	1028.39490	613.83020	1581.66309	1063.20349	459.01089	1583.27258	939.86847	332.57550	1535.60535	821.05182	164.30525	1479.65247	764.75525	147.41237	1546.59692	922.15778	66.56174	1427.22485	1044.96106	1711.45410	-3101.89063	1973.15259	1023.41260	-3140.69263	2012.43896	1022.09924			 
281	2.800	1341.97205	1024.13391	1672.12939	1446.84082	1065.96130	1676.97717	1381.17151	909.66351	1640.18213	1493.27612	951.26105	1644.65369	1412.20703	868.17908	1437.54639	1421.26855	840.29004	1142.97253	1411.02991	1011.29114	1370.48926	1407.47046	1058.78943	1217.72412	1488.31836	816.05115	1240.81946	1250.37219	952.19220	1399.89429	1168.36060	939.81104	1211.70813	1173.80945	941.64105	1058.89587	1149.54822	1000.46973	960.60144	1163.34412	1105.28345	867.74719	1145.16797	1050.74622	849.18219	1133.36255	1112.84814	791.24573	1563.46680	947.91504	1398.80835	1660.41931	879.71692	1200.72839	1664.09082	875.95825	1076.19775	1697.34290	901.60242	958.52679	1685.28247	984.64276	842.90704	1721.28931	938.64355	843.65027	1722.54041	977.00854	766.41882	1313.98694	1010.72791	936.96057	1530.36267	1013.01709	940.22266	1371.08289	824.24854	950.90356	1517.40540	829.80029	952.17157	1275.25586	990.10406	602.86920	1299.59924	987.81842	469.17133	1301.23840	933.19379	286.52896	1366.69812	902.60614	74.79804	1421.27319	859.66089	46.25810	1351.89893	1048.78174	39.23177	1600.31763	1038.35400	615.31915	1580.37952	1075.01416	461.01379	1582.19739	955.46887	329.98816	1535.33154	843.18982	157.76677	1479.24658	787.48334	138.34834	1548.00598	948.15454	64.81077	1426.67639	1052.22168	1711.42676	-3101.99219	1973.14282	1023.35248	-3140.73242	2012.51660	1021.96094			 
282	2.810	1341.55078	1031.16479	1672.23279	1446.37659	1073.17676	1676.90308	1380.72900	916.44958	1640.46057	1492.89612	958.49866	1644.72437	1411.55115	874.93408	1437.72668	1420.42236	846.75330	1143.14587	1410.34607	1018.03357	1370.55725	1406.68762	1065.37830	1217.73828	1487.45313	822.67316	1240.93982	1249.74341	958.93695	1400.20972	1167.41284	947.51544	1212.21057	1172.66040	950.40399	1059.28235	1148.38025	1010.52679	961.81720	1162.15503	1116.55823	870.45770	1144.10193	1062.34460	851.08447	1132.18689	1125.36267	794.07629	1562.80347	954.73602	1398.77368	1659.68701	886.37360	1200.75562	1663.32556	882.19080	1076.35913	1696.42908	906.92139	958.47333	1684.39551	989.00403	842.25897	1720.64380	943.28772	843.53961	1721.51538	980.77423	765.75452	1313.13025	1016.71527	936.67896	1529.51099	1019.44812	940.57819	1370.59656	830.35437	950.97864	1516.95654	836.19141	952.27814	1274.81030	993.28467	602.50916	1298.96533	989.88477	468.83740	1300.89063	934.39606	286.47375	1366.72656	902.73407	74.89581	1421.34595	859.61920	46.50840	1351.86951	1048.81274	39.19887	1599.59692	1047.92200	616.68524	1579.22949	1086.29285	462.95883	1581.57947	971.33087	327.70581	1534.98926	865.60510	151.03636	1479.40283	810.84296	129.51259	1549.18115	974.45868	63.09712	1426.17676	1059.47449	1711.33545	-3101.98340	1973.10803	1023.29572	-3140.68335	2012.56433	1022.08295			 
283	2.820	1341.15137	1038.31995	1672.23132	1445.83752	1080.39429	1676.80872	1380.50549	923.46875	1640.67859	1492.61511	965.72998	1644.81396	1411.11707	881.73065	1438.04077	1419.78735	853.17596	1143.40784	1409.73962	1024.80652	1370.56750	1405.90442	1071.97510	1217.70410	1486.67456	829.32391	1241.06018	1249.21777	965.67365	1400.46118	1166.56665	955.11475	1212.68420	1171.46204	958.88971	1059.69812	1147.27112	1020.33807	962.95618	1161.02771	1127.72925	873.16846	1143.02576	1073.80188	853.03955	1131.00146	1137.54102	796.86853	1562.26086	961.62152	1398.73010	1659.10010	893.10364	1200.71008	1662.56726	888.51971	1076.41418	1695.68628	912.44684	958.49011	1683.50781	993.53979	841.57043	1719.45105	947.62177	842.94714	1720.59082	984.69495	765.10162	1312.38354	1022.65491	936.32196	1528.69678	1025.81201	940.81726	1370.20776	836.42230	951.17004	1516.70984	842.62360	952.51831	1274.32458	996.55951	602.14996	1298.55225	991.89093	468.40359	1300.65259	935.51746	286.31760	1366.78564	902.81097	74.89025	1421.40723	859.04083	47.04269	1351.78271	1048.83313	39.14437	1599.08423	1057.26648	618.06720	1577.84338	1096.92554	464.44733	1581.03650	987.08807	325.25171	1534.97229	888.74567	144.57925	1479.61865	834.64581	120.51737	1550.04517	1000.94885	61.34192	1425.76172	1066.69360	1711.31262	-3101.89087	1973.19763	1023.39471	-3140.72046	2012.53613	1021.99097			 
284	2.830	1340.73657	1045.25012	1672.24231	1445.41577	1087.56873	1676.71191	1380.28052	930.44385	1640.87195	1492.28162	972.94171	1644.81226	1410.68152	888.49725	1438.19543	1419.04004	859.69385	1143.59167	1409.16821	1031.57117	1370.58313	1405.28589	1078.65308	1217.67688	1486.12756	835.88861	1241.37305	1248.75671	972.49304	1400.68799	1165.85803	962.64563	1213.09924	1170.34937	967.49597	1060.17395	1146.17651	1030.22632	964.21552	1160.00610	1138.71436	875.85242	1141.91272	1085.13708	854.94446	1129.99597	1149.76599	799.85364	1561.78662	968.49530	1398.71960	1658.51978	899.92682	1200.62488	1661.94714	894.94104	1076.46375	1694.92151	918.08691	958.45892	1682.61804	998.20282	840.84540	1719.02893	952.59845	842.89874	1719.65881	988.78448	764.38708	1311.66040	1028.63696	936.01141	1527.98621	1032.27625	941.06000	1369.92004	842.54553	951.25934	1516.41431	849.12451	952.74365	1274.02246	999.78619	601.81427	1298.09717	993.94574	468.00949	1300.40063	936.59406	286.30154	1366.72949	902.95129	74.95793	1421.15967	858.74158	47.46721	1351.71765	1048.86414	39.10403	1597.46155	1065.40271	618.32697	1577.12964	1107.63745	466.35660	1580.54993	1002.81836	322.68039	1535.13574	912.11499	138.01117	1478.84070	858.73535	111.96945	1550.65076	1027.60107	59.76226	1425.33960	1073.86975	1711.20605	-3101.82275	1973.07068	1023.50977	-3140.69067	2012.55115	1022.09119			 
